<?xml version="1.0" encoding="UTF-8"?>
<svg xmlns="http://www.w3.org/2000/svg" xmlns:xlink="http://www.w3.org/1999/xlink" viewBox="0 0 452 452" width="452px" height="452px">
<g id="surface29138">
<path style=" stroke:none;fill-rule:nonzero;fill:rgb(100%,100%,100%);fill-opacity:1;" d="M 409.277344 21.019531 C 407.558594 19.148438 405.144531 18.078125 402.605469 18.078125 L 49.394531 18.078125 C 46.855469 18.078125 44.441406 19.148438 42.722656 21.019531 C 41.003906 22.890625 40.164062 25.402344 40.390625 27.925781 L 72.210938 384.34375 C 72.546875 388.070312 75.140625 391.207031 78.738281 392.238281 L 223.46875 433.578125 C 224.273438 433.800781 225.113281 433.921875 225.945312 433.921875 C 226.777344 433.921875 227.617188 433.800781 228.421875 433.578125 L 373.28125 392.238281 C 376.878906 391.207031 379.472656 388.070312 379.804688 384.34375 L 411.609375 27.925781 C 411.835938 25.402344 410.984375 22.890625 409.277344 21.019531 Z M 108.480469 262.195312 L 171.761719 279.75 L 171.761719 99.441406 L 207.921875 99.441406 L 207.921875 334.480469 L 108.480469 306.898438 Z M 344.007812 198.878906 L 334.480469 309.621094 L 244.078125 334.480469 L 244.078125 292.886719 L 305.101562 276.117188 L 307.359375 242.21875 L 244.078125 253.121094 L 244.078125 99.441406 L 352.558594 99.441406 L 349.441406 135.601562 L 280.238281 135.601562 L 280.238281 207.921875 Z M 344.007812 198.878906 "/>
</g>
</svg>
